<?xml version="1.0" encoding="UTF-8" standalone="no"?>
<!-- Created with Inkscape (http://www.inkscape.org/) -->

<svg
   version="1.1"
   id="svg2744"
   width="444.44443"
   height="133.33333"
   viewBox="0 0 444.44443 133.33333"
   sodipodi:docname="Sisterless_black_new.svg"
   inkscape:version="1.1.1 (c3084ef, 2021-09-22)"
   inkscape:export-filename="/Users/pitho/Desktop/Sisterless_black_new.png"
   inkscape:export-xdpi="1000"
   inkscape:export-ydpi="1000"
   xmlns:inkscape="http://www.inkscape.org/namespaces/inkscape"
   xmlns:sodipodi="http://sodipodi.sourceforge.net/DTD/sodipodi-0.dtd"
   xmlns="http://www.w3.org/2000/svg"
   xmlns:svg="http://www.w3.org/2000/svg">
  <defs
     id="defs2748" />
  <sodipodi:namedview
     id="namedview2746"
     pagecolor="#000000"
     bordercolor="#999999"
     borderopacity="1"
     inkscape:pageshadow="0"
     inkscape:pageopacity="0"
     inkscape:pagecheckerboard="0"
     showgrid="false"
     inkscape:zoom="4.469228"
     inkscape:cx="223.08103"
     inkscape:cy="54.036178"
     inkscape:current-layer="g2750"
     showguides="false"
     inkscape:guide-bbox="true">
    <sodipodi:guide
       position="-2.3333333,53.666662"
       orientation="0,-1"
       id="guide12464" />
    <sodipodi:guide
       position="-34,95.33333"
       orientation="0,-1"
       id="guide12466" />
  </sodipodi:namedview>
  <g
     inkscape:groupmode="layer"
     inkscape:label="Image"
     id="g2750">
    <path
       style="fill:#fd0000;stroke-width:0.444444;fill-opacity:1"
       d="m 218.83886,110.77775 c -0.38696,0 -1.25859,-0.59416 -1.93696,-1.32035 -0.67836,-0.7262 -1.50296,-2.2762 -1.83244,-3.44444 -0.41223,-1.46165 -0.62439,-5.38142 -0.68029,-12.568534 -0.0447,-5.744444 -0.10032,-12.662342 -0.12364,-15.373102 -0.0401,-4.656306 -0.0977,-4.954462 -1.04242,-5.395555 -0.55831,-0.260676 -1.77665,-1.935654 -2.75839,-3.792253 l -1.75839,-3.32536 0.77525,-9.501307 c 0.42639,-5.22572 0.97885,-10.401311 1.22769,-11.501311 0.27236,-1.204 1.01152,-2.578613 1.85717,-3.453799 1.17808,-1.219232 1.3913,-1.762425 1.32149,-3.366587 -0.0458,-1.052033 -0.38615,-3.197823 -0.75635,-4.768422 -0.37021,-1.5706 -0.67606,-3.489278 -0.67968,-4.26373 -0.004,-0.774452 0.11767,-1.731849 0.26952,-2.127549 0.15184,-0.3957 0.84191,-1.012057 1.53348,-1.369683 0.69157,-0.357626 1.94036,-0.650229 2.77509,-0.650229 0.83491,0 2.01641,0.392292 2.62625,0.871991 0.63249,0.497514 1.36855,1.785864 1.71398,2.999999 0.33297,1.170406 0.59667,3.654933 0.58597,5.521172 l -0.0194,3.393162 2.03207,0.0032 c 1.11763,0.0017 3.18289,0.339242 4.58946,0.750022 1.86078,0.543428 2.84496,1.131596 3.61306,2.159244 0.58061,0.776803 1.49574,2.41237 2.03362,3.634592 0.91944,2.08924 0.95954,2.621174 0.67019,8.888889 -0.16928,3.666667 -0.45537,7.616667 -0.63576,8.777778 -0.18039,1.161111 -0.27544,2.111111 -0.21123,2.111111 0.0642,0 1.68435,0.311533 3.60029,0.692293 2.00318,0.398098 5.62931,0.680333 8.5329,0.664147 2.77715,-0.01547 7.35755,-0.230489 10.17868,-0.4778 4.1836,-0.366756 5.26027,-0.337774 5.83953,0.157182 0.39062,0.333764 1.16021,0.330969 1.58799,1.582676 0.93149,2.294344 1.65671,2.567015 -1.43331,4.573917 -1.16111,0.221343 -2.96398,0.593596 -4.00637,0.827232 -1.0424,0.233631 -2.86698,0.424786 -4.05462,0.424786 -1.18764,0 -3.03477,0.377316 -4.10473,0.83848 -1.46082,0.629631 -3.93806,0.962485 -9.94539,1.336311 -4.4,0.273805 -10.04619,0.496485 -12.54709,0.494849 -4.34614,-0.0027 -4.55815,0.0412 -4.79758,0.997027 -0.13777,0.55 -0.15476,4.9 -0.0377,9.666666 0.11701,4.766667 0.22127,9.166667 0.23169,9.777778 0.0104,0.611111 -0.12641,3.778251 -0.30406,7.038087 l -0.32299,5.92698 -1.45145,1.29524 c -0.79832,0.71239 -1.76808,1.29524 -2.15504,1.29524 z m 3.9965,-48.888879 c 0.33674,0 0.85635,-0.294124 1.15469,-0.653609 0.29835,-0.359484 0.86648,-3.558697 1.26252,-7.109364 0.66131,-5.929004 0.6618,-6.514022 0.006,-7.169849 -0.44782,-0.447813 -1.05556,-0.605715 -1.62981,-0.423457 -0.50364,0.159853 -1.01178,0.630409 -1.1292,1.04568 -0.11742,0.415275 -0.26102,2.255044 -0.3191,4.088377 -0.0581,1.833334 -0.0722,4.883334 -0.0315,6.777778 0.0558,2.59348 0.2254,3.444444 0.68639,3.444444 z"
       id="path2898"
       sodipodi:nodetypes="ssssssscssssscssssscccssssssssssccsssscscsscsssssssssscss" />
    <path
       d="m 219.4664,107.25056 c 0.78725,-0.78726 0.83353,-1.78921 0.82254,-17.810409 l -0.0116,-16.97623 4.55578,-0.09174 c 2.50567,-0.05045 5.45577,-0.122138 6.55577,-0.159298 1.1,-0.03715 5.1,-0.215422 8.88888,-0.396142 5.41296,-0.258187 7.24891,-0.50972 8.56924,-1.174036 0.9242,-0.465 2.5242,-0.848577 3.55556,-0.852395 1.03136,-0.004 3.0752,-0.296693 4.54187,-0.650836 1.46667,-0.354142 3.21667,-0.651017 3.88889,-0.659724 0.67222,-0.0087 1.22222,-0.16772 1.22222,-0.353365 0,-0.185644 -0.37828,-0.573777 -0.84062,-0.862515 -0.6434,-0.401805 -2.76759,-0.406929 -9.05375,-0.02182 -7.85929,0.481462 -8.51481,0.456391 -15.21557,-0.581934 -3.85133,-0.596791 -7.08864,-1.309257 -7.194,-1.583257 -0.10537,-0.274005 0.28466,-1.19996 0.86672,-2.057676 0.92049,-1.356422 1.12978,-2.45436 1.60724,-8.431826 l 0.54894,-6.872342 -1.17541,-2.936116 c -0.64648,-1.614866 -1.44696,-3.161484 -1.77885,-3.436934 -0.3319,-0.275448 -1.66473,-0.785495 -2.96185,-1.133436 -1.50595,-0.403958 -3.26211,-0.533968 -4.8586,-0.359686 l -2.5002,0.272936 -0.18453,-5.542693 c -0.14497,-4.354679 -0.35505,-5.802964 -0.98015,-6.75698 -0.65243,-0.995729 -1.00835,-1.160895 -1.97749,-0.917657 -0.65002,0.163146 -1.30409,0.494392 -1.45347,0.736104 -0.14939,0.241711 -0.0841,1.471395 0.14518,2.732631 0.22924,1.261236 0.5917,2.619975 0.80548,3.019419 0.21377,0.399443 0.44639,2.144317 0.51692,3.877496 0.1262,3.101369 0.10224,3.177947 -1.51392,4.8392 -1.36578,1.40388 -1.72124,2.174173 -2.11204,4.576858 -0.25844,1.588889 -0.60079,5.546471 -0.76078,8.794631 -0.15999,3.24816 -0.45952,6.009964 -0.66562,6.137342 -0.20611,0.127378 -0.37474,0.753844 -0.37474,1.392142 0,0.638302 0.625,2.516498 1.38889,4.173773 1.28893,2.796365 1.47447,2.996107 2.57809,2.775382 0.94603,-0.189204 1.27951,-0.0256 1.63088,0.8 0.28158,0.661605 0.33113,5.226925 0.1367,12.593396 -0.24279,9.198684 -0.18478,11.788853 0.28443,12.699386 0.42609,0.826849 0.47722,1.627418 0.18452,2.888888 -0.2227,0.95978 -0.28539,2.745053 -0.13931,3.967273 0.14609,1.22222 0.57116,2.88691 0.94461,3.6993 0.66416,1.4448 0.69724,1.45885 1.51319,0.64291 z m 1.63228,-42.342195 c -0.42266,0 -0.92474,-0.25 -1.11573,-0.555555 -0.19099,-0.305556 -0.42233,-3.155556 -0.51409,-6.333333 -0.0918,-3.177778 0.0431,-7.277778 0.2996,-9.111111 0.35206,-2.515907 0.70175,-3.524067 1.42599,-4.111111 0.53325,-0.43224 1.70083,-0.777778 2.62814,-0.777778 1.00742,0 2.12608,0.359853 2.82313,0.908147 0.64583,0.508017 1.27779,1.565262 1.43431,2.399551 0.15388,0.820275 -0.0568,4.161608 -0.46814,7.425186 -0.41136,3.263582 -0.97983,6.433782 -1.26327,7.044893 -0.28343,0.611111 -1.40771,1.561111 -2.49839,2.111111 -1.09069,0.55 -2.32888,1 -2.75155,1 z m -5.45794,-0.444444 c -0.37367,0 -0.79713,-0.469067 -0.94102,-1.042365 -0.14389,-0.573302 -0.1977,-1.823302 -0.11958,-2.777777 0.0968,-1.183165 0.35419,-1.735414 0.80871,-1.735414 0.50737,0 0.69828,0.663747 0.79898,2.777778 0.10735,2.253698 0.004,2.777778 -0.54709,2.777778 z"
       style="fill:#4e0000;stroke-width:1.5;stroke-miterlimit:4;stroke-dasharray:none;stroke:none;stroke-opacity:1;fill-opacity:1"
       id="path8457" />
    <path
       d="m 173.37153,82.983753 c -0.28535,-0.03069 -1.29713,-0.39398 -2.24839,-0.807273 -0.95128,-0.413288 -2.14225,-1.300902 -2.64663,-1.972476 -0.52937,-0.704832 -0.87613,-1.806455 -0.82023,-2.605769 0.0533,-0.761592 -0.0973,-2.06722 -0.33465,-2.901384 -0.36822,-1.294316 -0.30017,-1.707169 0.46406,-2.816149 0.79353,-1.151509 0.86196,-1.640611 0.60099,-4.295 -0.16198,-1.64753 -0.4325,-4.107847 -0.60116,-5.467368 -0.16862,-1.359519 -0.44415,-3.062733 -0.61225,-3.784915 -0.16812,-0.722189 -0.24047,-2.245314 -0.16079,-3.384733 0.0796,-1.139431 0.52517,-2.975664 0.98998,-4.080539 0.4648,-1.104878 1.70494,-2.779253 2.75587,-3.720834 l 1.91078,-1.711964 5.58737,0.684404 c 4.02732,0.493312 7.01652,0.591113 10.70598,0.350277 2.81526,-0.183769 6.12883,-0.262735 7.36351,-0.175482 1.45818,0.103072 2.73026,0.503202 3.62986,1.141836 0.76174,0.540755 1.66754,1.700721 2.01292,2.577705 0.50064,1.271303 0.51036,1.81107 0.048,2.662867 -0.37353,0.688082 -1.63877,1.476019 -3.55459,2.213655 -1.63605,0.629911 -3.43191,1.114307 -3.99082,1.076435 -0.55892,-0.03778 -2.72677,0.412004 -4.81746,0.99972 -2.09068,0.587718 -4.22798,1.047784 -4.74956,1.022361 -0.52155,-0.02542 -1.56665,0.195447 -2.32243,0.490809 L 181.20775,59.016958 183,58.872048 c 0.98574,-0.0797 3.01678,-0.453839 4.51344,-0.831419 1.68554,-0.425237 3.80539,-0.591445 5.56998,-0.436717 1.76899,0.155101 3.23367,0.542283 3.86416,1.021456 0.55847,0.424408 1.25069,1.467783 1.5383,2.318607 0.28758,0.850827 0.50115,1.858081 0.47455,2.238343 -0.0266,0.380258 -1.05802,1.511576 -2.29205,2.514024 -1.71911,1.396475 -2.82266,1.908133 -4.71971,2.188283 -1.36179,0.20111 -2.13074,0.46902 -1.70876,0.59536 0.42197,0.126342 1.45565,0.05464 2.29707,-0.159237 0.84143,-0.213918 3.56639,-0.338115 6.05547,-0.275998 2.48912,0.06213 4.91431,-0.06136 5.38936,-0.2744 0.47505,-0.213049 1.24495,-0.360698 1.71088,-0.328117 0.46593,0.03258 1.15182,0.447181 1.52422,0.921342 0.45979,0.585472 0.62152,1.65627 0.50398,3.337111 -0.15515,2.21944 -0.32225,2.583675 -1.61742,3.527439 -1.12892,0.822559 -1.92452,1.018851 -3.64277,0.898699 -1.20911,-0.08455 -2.65963,0.09225 -3.22338,0.392889 -0.56376,0.300637 -1.83216,0.621322 -2.81873,0.712627 -0.98654,0.09131 -2.81802,0.478728 -4.06995,0.860932 -1.25194,0.3822 -3.49442,0.912831 -4.9833,1.179175 -1.48886,0.266343 -3.52569,0.833862 -4.52629,1.261144 -1.09643,0.468214 -2.68141,0.716597 -3.98917,0.62515 -1.66772,-0.116613 -2.4927,0.08347 -3.56467,0.864558 -0.76713,0.558961 -1.62826,0.991166 -1.9136,0.960457 z"
       style="fill:#ffffff;stroke-width:0.444444"
       id="path9714" />
    <path
       d="m 173.02153,80.183753 c 0.22395,0.02568 0.80476,-0.265912 1.29068,-0.647516 0.5341,-0.419474 2.07724,-0.737586 3.90244,-0.804479 1.66045,-0.06085 3.734,-0.455788 4.60788,-0.877639 0.87387,-0.421848 2.70347,-0.937431 4.06577,-1.14574 1.36229,-0.208312 3.65117,-0.772202 5.08642,-1.2531 1.43522,-0.480897 3.19874,-0.833151 3.91893,-0.782789 0.75754,0.05297 1.91046,-0.346387 2.73547,-0.94752 1.15127,-0.838863 1.58832,-0.937077 2.26817,-0.509688 0.46319,0.291167 1.34272,0.564398 1.95456,0.607182 0.64693,0.04523 1.43005,-0.31434 1.87149,-0.859327 0.41751,-0.515406 0.79237,-1.412844 0.83302,-1.994301 0.0582,-0.832957 -0.0954,-1.000943 -0.72429,-0.792025 -0.43904,0.145839 -1.20381,0.331033 -1.69952,0.411542 -0.4957,0.08051 -1.36951,0.33344 -1.9418,0.562067 -0.77024,0.307711 -1.16688,0.270314 -1.52701,-0.143979 -0.26757,-0.307793 -1.28143,-0.615224 -2.25304,-0.683167 -0.97157,-0.06794 -2.89657,0.07983 -4.27777,0.328386 -1.38118,0.248553 -4.23268,0.550377 -6.33665,0.670722 -2.10399,0.120344 -4.8462,0.147429 -6.0938,0.06019 -1.24762,-0.08724 -2.57552,-0.30179 -2.95088,-0.476788 -0.37536,-0.174984 -0.6578,-0.670893 -0.62766,-1.102024 0.0366,-0.52324 0.52192,-0.843785 1.45969,-0.964086 0.77268,-0.09912 1.95158,-0.141987 2.61976,-0.09526 0.66818,0.04673 1.75005,-0.278601 2.40415,-0.722946 0.65412,-0.444341 1.35767,-0.800613 1.56343,-0.791717 0.20577,0.0089 1.61244,-0.48971 3.12592,-1.108019 1.51347,-0.61831 3.23072,-1.095202 3.81609,-1.059759 0.62687,0.03792 1.73688,-0.537705 2.70071,-1.400602 1.47554,-1.321026 1.58348,-1.558312 1.0978,-2.413813 -0.39759,-0.700382 -1.11449,-1.026563 -2.7384,-1.245945 -1.39683,-0.188707 -3.11222,-0.04088 -4.69934,0.404983 -1.37472,0.386192 -3.91833,0.718114 -5.65245,0.737604 -2.02561,0.02277 -3.4854,-0.173554 -4.08275,-0.549074 -0.55745,-0.350423 -0.90011,-1.009272 -0.85564,-1.645133 0.0432,-0.617797 0.58885,-1.410252 1.30685,-1.898014 0.67801,-0.460564 2.06861,-0.994172 3.09025,-1.1858 1.02166,-0.191626 4.00039,-0.885445 6.61943,-1.541821 2.61903,-0.65637 5.16062,-1.163804 5.64796,-1.127626 0.48736,0.03628 1.86512,-0.315786 3.06166,-0.782149 1.19656,-0.466361 2.19103,-1.069174 2.20994,-1.339585 0.0185,-0.270428 -0.29333,-0.822666 -0.69386,-1.227232 -0.40054,-0.404564 -1.16672,-0.90342 -1.70263,-1.108568 -0.53592,-0.205149 -3.54156,-0.229245 -6.67921,-0.05356 -3.13764,0.17569 -6.02781,0.39088 -6.42258,0.478196 -0.39477,0.08732 -2.87826,-0.18198 -5.51886,-0.598448 -3.24334,-0.511568 -4.98974,-0.621671 -5.38263,-0.339461 -0.31984,0.229756 -1.24969,1.287889 -2.06635,2.351404 -1.13159,1.473716 -1.51993,2.43622 -1.63252,4.046388 -0.0812,1.161991 0.13392,3.799135 0.47813,5.860319 0.34424,2.061184 0.58102,4.409238 0.5262,5.2179 -0.0546,0.808678 0.0856,1.883311 0.31192,2.388109 0.29547,0.658814 0.2231,1.494126 -0.25651,2.960094 -0.36745,1.12326 -0.71202,2.543398 -0.76573,3.155865 -0.0537,0.612462 -0.0102,1.866741 0.0968,2.787276 0.13611,1.17209 0.54035,1.894058 1.34875,2.408933 0.6349,0.404372 1.33761,0.756068 1.56158,0.781532 z"
       style="fill:#000000;stroke-width:1.5;stroke:#000000;stroke-opacity:1;stroke-miterlimit:4;stroke-dasharray:none"
       id="path8007" />
    <path
       d="m 79.998605,78.689445 c -1.222222,0.109458 -2.772297,0.106427 -3.444612,-0.0068 -0.67232,-0.113164 -1.425387,-0.585048 -1.673489,-1.048631 -0.254551,-0.475587 -0.645058,-7.762995 -0.896262,-16.725484 l -0.445169,-15.882653 1.229769,-1.015138 c 0.676369,-0.558329 1.961644,-1.244778 2.856169,-1.525444 0.894519,-0.280667 2.11923,-0.386609 2.721576,-0.235431 0.602347,0.151177 1.522289,0.627409 2.044316,1.058289 0.522026,0.430875 1.256871,1.883413 1.632991,3.227857 0.376115,1.344445 0.882093,3.25508 1.124395,4.245862 0.280814,1.148258 0.313147,6.020107 0.08918,13.436596 L 84.8861,75.853645 83.553465,77.172032 c -1.025191,1.014226 -1.845307,1.364297 -3.554858,1.5174 z M 79.215614,36.758243 c -1.394427,-0.4 -1.83083,-0.675854 -3.126692,-1.935285 -1.129929,-1.098167 -2.123134,-2.535699 -2.296129,-3.323346 -0.16768,-0.763434 -0.172982,-1.803604 -0.01178,-2.31149 0.161196,-0.507886 1.106111,-1.51238 2.099804,-2.232209 1.386703,-1.004528 2.2898,-1.308781 3.884773,-1.308781 1.588075,0 2.302386,0.238777 3.029408,1.012654 0.523236,0.55696 1.258098,1.882106 1.633027,2.944768 0.374929,1.062662 0.681689,2.396277 0.681689,2.963588 0,0.753885 -0.640324,1.456499 -2.379338,2.610788 -1.308631,0.868622 -1.90592,1.479313 -3.514764,1.579313 z"
       style="fill:#ffffff;stroke-width:0.444444"
       id="path10144"
       sodipodi:nodetypes="sccscssssssscssscssssssssscc" />
    <path
       d="m 78.974249,76.52516 c 1.412769,0 2.176764,-0.25597 2.791724,-0.93534 0.759294,-0.83883 0.879756,-1.99687 1.167347,-11.22222 0.176373,-5.65779 0.213453,-10.88688 0.08239,-11.62021 -0.131058,-0.73334 -0.550569,-2.33334 -0.932244,-3.55556 -0.381676,-1.22222 -0.864462,-2.67222 -1.072862,-3.22222 -0.268498,-0.7086 -0.741405,-1 -1.62288,-1 -0.684187,0 -1.691405,0.313395 -2.238271,0.696435 l -0.994298,0.696431 0.265862,14.525794 c 0.146227,7.98918 0.342884,14.77578 0.437018,15.08134 0.102813,0.33374 0.947738,0.55555 2.116214,0.55555 z"
       style="fill:#000000;stroke-width:1.5;stroke:#000000;stroke-opacity:1;stroke-miterlimit:4;stroke-dasharray:none"
       id="path6961" />
    <path
       d="m 79.95613,33.984779 c 0.383187,-0.304914 1.053045,-0.848837 1.488578,-1.208718 0.435533,-0.359881 0.791129,-0.959881 0.790213,-1.333334 -9.11e-4,-0.373452 -0.397973,-1.329004 -0.882355,-2.123448 -0.484383,-0.794445 -1.210027,-1.444445 -1.612547,-1.444445 -0.402516,0 -1.405458,0.416312 -2.228755,0.925138 -0.83624,0.516826 -1.496903,1.292009 -1.496903,1.756383 0,0.457185 0.730138,1.540349 1.622534,2.40703 1.359311,1.320148 1.735555,1.485846 2.319235,1.021394 z"
       style="fill:#000000;stroke-width:1.5;stroke:#000000;stroke-opacity:1;stroke-miterlimit:4;stroke-dasharray:none"
       id="path7119"
       sodipodi:nodetypes="sssssssss" />
    <path
       d="m 300.75933,68.592866 c -0.39903,-0.08993 -1.43153,-0.689836 -2.29459,-1.332308 -0.86305,-0.642483 -1.80785,-1.60557 -2.09953,-2.140203 -0.29167,-0.534636 -0.49248,-2.342578 -0.44635,-4.017621 0.0729,-2.642314 0.22768,-3.260135 1.16908,-4.665967 0.59678,-0.891221 1.0021,-1.85186 0.90071,-2.134765 -0.10144,-0.282883 -0.0732,-1.848087 0.0624,-3.478182 0.13568,-1.630097 0.21818,-3.889981 0.18337,-5.021964 -0.0349,-1.131995 0.11166,-3.398207 0.32501,-5.036067 0.21363,-1.637847 0.59775,-3.405395 0.8536,-3.927895 0.25585,-0.522501 1.41126,-1.762256 2.5676,-2.75501 1.15632,-0.992758 2.44938,-1.994487 2.87347,-2.226069 0.58239,-0.318037 2.08761,-0.07671 6.15157,0.98625 3.72851,0.975202 6.95088,1.525847 10.4949,1.793367 2.81288,0.212333 6.10465,0.597906 7.31505,0.856825 1.3965,0.298784 2.57845,0.853849 3.23446,1.519124 0.5686,0.576595 1.23815,1.48432 1.4879,2.017163 0.24961,0.532904 0.31081,1.673428 0.13573,2.534613 -0.19862,0.977756 -0.67441,1.772565 -1.26631,2.116293 -0.52138,0.302783 -1.27016,0.482005 -1.66399,0.398295 -0.39382,-0.08371 -1.43958,0.102176 -2.32389,0.413084 -0.88432,0.310914 -2.17529,0.445452 -2.86881,0.298961 -0.69353,-0.146501 -2.96843,-0.02537 -5.05532,0.26914 -2.0869,0.294509 -4.60727,0.512099 -5.60081,0.483583 -1.27999,-0.03679 -1.53895,0.05495 -0.88854,0.314786 0.50485,0.20168 2.54689,0.214125 4.53785,0.02764 2.75445,-0.257998 4.21177,-0.158327 6.09516,0.416875 1.99192,0.608349 2.66694,1.051197 3.45723,2.268132 0.54012,0.831702 0.98634,2.149743 0.99162,2.928974 0.009,1.263166 -0.26447,1.597757 -2.51842,3.085847 -2.06803,1.365372 -2.98906,1.671379 -5.06192,1.681804 -1.39366,0.007 -2.20643,0.163154 -1.80614,0.346988 0.40027,0.183835 1.47192,0.252555 2.38141,0.152722 0.9095,-0.09984 3.65158,0.162674 6.09351,0.583361 2.44195,0.420687 4.67903,0.609575 4.97136,0.419744 0.29229,-0.189832 1.04889,-0.235176 1.68131,-0.100719 0.63245,0.134422 1.3976,0.670982 1.70036,1.192355 0.32923,0.566899 0.39327,1.685627 0.16046,2.782909 -0.21454,1.009232 -0.80695,2.343533 -1.31653,2.965124 -0.50956,0.621585 -1.34568,1.251587 -1.85801,1.399998 -0.51234,0.148412 -1.80237,0.08474 -2.86672,-0.141491 -1.06433,-0.226235 -2.55764,-0.238195 -3.31842,-0.02659 -0.76077,0.211612 -1.81921,0.293338 -2.35204,0.181615 -0.53273,-0.11221 -2.37835,0.01071 -4.10116,0.272074 -1.72279,0.261356 -4.36196,0.529468 -5.86481,0.595799 -1.50284,0.06633 -3.52332,0.350221 -4.48995,0.630872 -1.05158,0.305313 -2.60797,0.329507 -3.87484,0.06022 -1.62424,-0.345244 -2.47195,-0.260891 -3.63999,0.362234 -0.83744,0.446757 -1.84906,0.738414 -2.24804,0.648119 z"
       style="fill:#ffffff;stroke-width:0.444444"
       id="path10426"
       sodipodi:nodetypes="ssssssssssssssssscsssssssssssssssssssssssscsssssss" />
    <path
       d="m 352.09579,78.9458 c -1.46666,0.0768 -3.56666,-0.0129 -4.66666,-0.19932 -1.1,-0.18642 -3,-0.84625 -4.22222,-1.46628 -1.22223,-0.62004 -2.69397,-1.63425 -3.27054,-2.25382 -0.57657,-0.61957 -1.42495,-2.49046 -1.88529,-4.15753 -0.46033,-1.66707 -0.96246,-3.48973 -1.11583,-4.05036 -0.22218,-0.81218 0.1082,-1.37663 1.62591,-2.77777 1.26124,-1.16437 2.3196,-1.75846 3.13265,-1.75846 0.95515,0 1.52147,0.43499 2.54953,1.95828 0.7269,1.07706 1.45818,2.38851 1.62507,2.91435 0.1669,0.52584 0.83633,1.16073 1.48764,1.41088 0.68841,0.26439 2.37232,0.32926 4.02211,0.15494 1.56085,-0.16493 3.86085,-0.60278 5.11111,-0.973 1.25025,-0.37023 2.87319,-0.99323 3.60652,-1.38445 l 1.33334,-0.7113 -2,-0.31858 c -1.1,-0.17521 -2.96978,-0.3334 -4.15506,-0.35152 -1.18528,-0.0181 -2.78528,-0.30318 -3.55555,-0.63347 -0.77028,-0.3303 -1.95297,-0.7803 -2.62822,-1 -0.67524,-0.21971 -2.30462,-1.18755 -3.62084,-2.15077 -1.31622,-0.96322 -2.71374,-2.29408 -3.10562,-2.95746 -0.39187,-0.66339 -0.71249,-1.69521 -0.71249,-2.29293 0,-0.59772 0.55,-1.90057 1.22222,-2.89522 0.67223,-0.99466 2.92331,-3.37476 5.00242,-5.28911 2.07911,-1.91435 4.77911,-4.291002 6,-5.281442 1.22089,-0.990444 3.25688,-2.240443 4.52442,-2.77778 1.26754,-0.537336 2.90813,-0.976975 3.64575,-0.976975 0.73763,0 1.86555,0.238937 2.5065,0.530971 0.64094,0.292034 1.45337,1.087939 1.8054,1.768678 0.42897,0.829537 0.54439,1.835853 0.35,3.051508 -0.17522,1.09575 -0.76459,2.28699 -1.48879,3.0091 -0.6593,0.65741 -2.65146,1.98978 -4.427,2.96082 -1.77555,0.97104 -3.71988,2.34978 -4.32074,3.06386 -0.63081,0.74967 -0.92683,1.46397 -0.7005,1.69029 0.21558,0.21559 2.89065,0.56904 5.94461,0.78547 3.05395,0.21643 6.25526,0.68707 7.114,1.04588 0.85875,0.3588 1.99851,1.20812 2.53281,1.88738 0.5343,0.67926 1.28941,2.32872 1.67802,3.66549 0.42508,1.46223 0.59938,3.10072 0.43752,4.11295 -0.14798,0.92536 -0.65731,2.58827 -1.13186,3.69535 -0.75375,1.75843 -1.3007,2.25496 -4.32693,3.92811 -1.90525,1.05339 -4.56745,2.38112 -5.91598,2.95051 -1.34853,0.5694 -3.55187,1.23727 -4.89631,1.48417 -1.34445,0.24691 -3.64445,0.51176 -5.11112,0.58856 z"
       style="fill:#ffffff;stroke-width:0.444444"
       id="path10443"
       sodipodi:nodetypes="sssssssssssssscsssssssssssssssssssssssssssss" />
    <path
       d="m 300.79396,65.587309 c 0.2586,0.07082 0.87861,-0.166419 1.37781,-0.527192 0.6534,-0.472205 1.73807,-0.542604 3.87243,-0.251331 1.82973,0.249705 3.61891,0.191486 4.67341,-0.152054 0.93976,-0.30617 2.83611,-0.570312 4.21415,-0.587001 1.37802,-0.01669 3.72311,-0.256536 5.21129,-0.533013 1.48819,-0.276463 3.28358,-0.379858 3.98975,-0.229756 0.73079,0.155329 1.93143,-0.0725 2.78683,-0.528839 1.33688,-0.713193 1.63862,-0.714671 2.7319,-0.01334 0.9176,0.588611 1.52834,0.72207 2.41014,0.526643 0.73781,-0.163456 1.40223,-0.74949 1.77022,-1.561236 0.32404,-0.714718 0.49047,-1.451456 0.36979,-1.637206 -0.12059,-0.185739 -0.64942,-0.181291 -1.17511,0.0099 -0.52567,0.191197 -1.25455,0.284092 -1.61969,0.206501 -0.36513,-0.07761 -1.09856,0.01696 -1.6298,0.210166 -0.76219,0.277187 -1.05436,0.215097 -1.38525,-0.294441 -0.23061,-0.355162 -1.29225,-0.831268 -2.35916,-1.058046 -1.06689,-0.226782 -2.99451,-0.344651 -4.28359,-0.261945 -1.28906,0.0827 -4.06136,0.0046 -6.16066,-0.173553 -2.0993,-0.178162 -4.8178,-0.536682 -6.04112,-0.796706 -1.22334,-0.260025 -2.50842,-0.657291 -2.85578,-0.882819 -0.34737,-0.22552 -0.55652,-0.763173 -0.46479,-1.194776 0.12534,-0.589665 0.64085,-0.756439 2.07368,-0.670871 1.04878,0.06263 2.45258,0.125431 3.11954,0.139557 0.66699,0.01408 1.5055,-0.205625 1.86335,-0.48836 0.35788,-0.28273 0.95366,-0.449661 1.324,-0.370935 0.37032,0.07872 1.03749,-0.05152 1.4826,-0.289419 0.4451,-0.237898 1.76555,-0.570624 2.93436,-0.739395 1.16882,-0.168771 2.49005,-0.229284 2.93611,-0.134471 0.44607,0.09481 1.61954,-0.369593 2.60774,-1.032113 1.44903,-0.971414 1.74611,-1.379174 1.53522,-2.107191 -0.18761,-0.647612 -0.91767,-1.114548 -2.58362,-1.652392 -1.77547,-0.573213 -3.15446,-0.66774 -5.85782,-0.401911 -2.06523,0.20315 -4.59147,0.123371 -6.0743,-0.191817 -1.68321,-0.357776 -2.66926,-0.788605 -2.92641,-1.278578 -0.21326,-0.406457 -0.22943,-1.169617 -0.0359,-1.695928 0.19357,-0.526312 1.09232,-1.254762 1.99728,-1.618756 0.90498,-0.364004 2.80672,-0.653625 4.22616,-0.643547 1.4194,0.01006 3.85234,-0.205637 5.40654,-0.479335 1.55417,-0.273667 3.63509,-0.44417 4.62425,-0.378892 0.98918,0.06528 2.76428,-0.09635 3.94473,-0.359173 1.18045,-0.262775 2.2079,-0.504601 2.2832,-0.537387 0.0753,-0.0327 0.0811,-0.41494 0.012,-0.849509 -0.0688,-0.434477 -0.65396,-1.223539 -1.30037,-1.753483 -1.01605,-0.832943 -1.75475,-1.015906 -5.45121,-1.350139 -2.35173,-0.212647 -5.43289,-0.428252 -6.84698,-0.479132 -1.4141,-0.05088 -3.48855,-0.391734 -4.60993,-0.757447 -1.12136,-0.365714 -3.20973,-1.029239 -4.64084,-1.474495 l -2.60201,-0.809558 -2.1574,2.043277 c -1.73713,1.645234 -2.24775,2.44693 -2.62123,4.115294 -0.25511,1.139606 -0.43107,3.203554 -0.39101,4.58655 0.0401,1.38299 -6.3e-4,3.930199 -0.0904,5.660454 -0.0897,1.730259 -0.0619,3.409931 0.0617,3.732598 0.1236,0.322686 -0.18211,1.382236 -0.67959,2.354603 -0.49746,0.972367 -1.11402,2.941966 -1.37011,4.376895 -0.25611,1.434915 -0.29625,2.931651 -0.0892,3.326059 0.20693,0.39442 0.74008,0.963051 1.18468,1.263668 0.44458,0.300607 1.01993,0.604494 1.27851,0.675304 z"
       style="fill:#000000;stroke-width:1.5;stroke:#000000;stroke-opacity:1;stroke-miterlimit:4;stroke-dasharray:none"
       id="path8963" />
    <path
       d="m 352.45428,76.62088 c 0.61111,-0.08204 2.21111,-0.369724 3.55555,-0.639302 1.34445,-0.269578 3.94445,-1.087805 5.77778,-1.818284 1.83333,-0.73048 4.421,-2.003605 5.75037,-2.829169 2.13086,-1.323302 2.50548,-1.78212 3.16404,-3.87516 0.6414,-2.038485 0.66622,-2.644218 0.17555,-4.284529 -0.31431,-1.050716 -0.88732,-2.392444 -1.27336,-2.981618 -0.38604,-0.589177 -1.4527,-1.275946 -2.37036,-1.526155 -0.91765,-0.250214 -4.00376,-0.649654 -6.858,-0.887649 -2.85425,-0.237996 -5.90706,-0.732516 -6.78403,-1.098938 -0.87697,-0.366422 -1.72043,-0.99444 -1.87437,-1.395595 -0.19949,-0.519863 0.70607,-1.674627 3.15252,-4.020067 1.88783,-1.80988 3.72056,-3.290693 4.07275,-3.290693 0.35218,0 1.48636,-0.521707 2.52039,-1.159351 1.03403,-0.637645 2.13006,-1.475867 2.43561,-1.862725 0.30556,-0.386853 0.55556,-1.233044 0.55556,-1.880417 0,-0.825231 -0.33319,-1.328858 -1.1147,-1.684938 -0.90609,-0.412846 -1.53563,-0.341967 -3.36415,0.378769 -1.23721,0.487662 -3.5856,1.964889 -5.21865,3.282724 -1.63304,1.31784 -4.61917,3.984462 -6.63584,5.925831 -2.64472,2.545973 -3.66666,3.834862 -3.66666,4.624436 0,0.602066 0.25,1.405057 0.55555,1.784422 0.30556,0.379364 1.48045,1.309924 2.61088,2.067911 1.13043,0.757986 2.93042,1.688524 4,2.067857 1.06957,0.379338 4.61636,0.888605 7.88176,1.131703 3.26539,0.243097 6.11539,0.5522 6.33333,0.686893 0.21794,0.134693 0.38759,0.683098 0.377,1.218671 -0.0136,0.685951 -0.76891,1.460178 -2.55555,2.619418 -1.39497,0.905106 -3.83631,2.068449 -5.4252,2.585204 -1.62549,0.528662 -4.6382,1.039547 -6.88888,1.168196 -2.84131,0.162409 -4.51498,0.04513 -5.77778,-0.404845 -1.44114,-0.513529 -1.80618,-0.875386 -1.92778,-1.910969 -0.0825,-0.702613 -0.54403,-1.830835 -1.02561,-2.507155 -0.84449,-1.185969 -0.91498,-1.203876 -1.98343,-0.503804 -0.72416,0.474488 -1.01214,0.972471 -0.83154,1.437911 0.15196,0.391617 0.55917,1.793146 0.9049,3.114506 0.34573,1.32136 0.98145,2.79728 1.4127,3.279818 0.43125,0.482542 1.68409,1.28456 2.78409,1.782266 1.1,0.497707 3,1.05096 4.22222,1.229454 1.22223,0.178493 2.72223,0.257409 3.33334,0.175373 z"
       style="fill:#000000;stroke-width:1.5;stroke:#000000;stroke-opacity:1;stroke-miterlimit:4;stroke-dasharray:none"
       id="path9098" />
    <path
       d="m 391.18977,78.39742 c -1.34443,0.0782 -3.34443,-0.009 -4.44443,-0.1929 -1.1,-0.18433 -2.9392,-0.76981 -4.0871,-1.30106 -1.1479,-0.53126 -2.69797,-1.5768 -3.44459,-2.32343 -0.74663,-0.74662 -1.47411,-1.89204 -1.61662,-2.54537 -0.14252,-0.65334 -0.54245,-2.07351 -0.88874,-3.15595 -0.34629,-1.08244 -0.62962,-2.49896 -0.62962,-3.14784 0,-0.83907 0.50587,-1.5863 1.75172,-2.58749 0.96344,-0.77425 2.25428,-1.40771 2.86853,-1.40771 0.80622,0 1.55509,0.57398 2.69273,2.0639 0.86675,1.13515 1.57591,2.4401 1.57591,2.89989 0,0.50061 0.49031,1.02639 1.22222,1.31062 0.69649,0.27048 2.37256,0.36058 3.8965,0.20945 1.47086,-0.14586 4.01416,-0.64837 5.65179,-1.11668 1.63762,-0.46832 3.42869,-1.16752 3.98016,-1.55378 l 1.00266,-0.7023 -1.09889,-0.0353 c -0.60439,-0.0194 -2.69889,-0.19185 -4.65445,-0.38314 -1.95555,-0.19129 -4.25555,-0.6053 -5.1111,-0.92001 -0.85556,-0.31472 -1.97571,-0.76012 -2.48923,-0.9898 -0.51352,-0.22967 -1.90234,-1.14975 -3.08628,-2.04464 -1.18393,-0.89488 -2.53033,-2.273892 -2.992,-3.064462 -0.73264,-1.25456 -0.76975,-1.64846 -0.29174,-3.09684 0.30122,-0.91269 1.56777,-2.73831 2.81457,-4.05692 1.2468,-1.3186 4.17403,-4.05858 6.50495,-6.08884 2.55363,-2.224236 5.29164,-4.161757 6.88889,-4.874857 2.02554,-0.904312 3.11914,-1.132917 4.63616,-0.969144 1.45837,0.157442 2.26759,0.542471 3.04873,1.450593 0.89338,1.038625 1.03018,1.581825 0.85569,3.397834 -0.14955,1.556364 -0.54243,2.510954 -1.40319,3.409394 -0.65752,0.6863 -2.63867,1.98034 -4.40255,2.87564 -1.78209,0.90454 -3.74101,2.29699 -4.40877,3.13388 -1.06725,1.33753 -1.1169,1.5386 -0.44371,1.79693 0.4169,0.15997 3.06035,0.45289 5.87435,0.65092 2.81399,0.19804 5.81634,0.66026 6.6719,1.02716 0.85555,0.3669 1.98541,1.14287 2.51078,1.72437 0.52538,0.5815 1.27538,2.014272 1.66667,3.183922 0.39129,1.16966 0.71063,2.86965 0.70965,3.77778 -8.9e-4,0.90812 -0.3601,2.65007 -0.79803,3.87099 -0.63825,1.77944 -1.26123,2.54473 -3.13996,3.85727 -1.28905,0.90057 -4.07994,2.37034 -6.20198,3.26615 -2.12203,0.89582 -4.95824,1.82694 -6.30269,2.06916 -1.34444,0.24221 -3.54444,0.50441 -4.88889,0.58265 z"
       style="fill:#ffffff;stroke-width:0.444444"
       id="path10804" />
    <path
       d="m 391.18964,76.09742 c 0.61111,-0.078 2.29411,-0.359577 3.74,-0.625737 1.44588,-0.26616 4.06318,-1.081031 5.81621,-1.810818 1.75304,-0.729791 4.26337,-1.97184 5.57853,-2.760116 2.08662,-1.250671 2.49922,-1.740759 3.23935,-3.847755 0.80659,-2.296182 0.81195,-2.529422 0.10925,-4.758635 -0.42732,-1.355632 -1.21943,-2.722085 -1.87843,-3.240458 -0.62674,-0.492991 -1.76924,-1.005285 -2.53888,-1.138431 -0.76965,-0.133151 -3.6338,-0.429218 -6.36477,-0.657934 -2.73097,-0.228711 -5.68097,-0.714822 -6.55555,-1.080244 -1.08891,-0.454973 -1.59015,-0.950898 -1.59015,-1.57328 0,-0.545964 1.28661,-2.150742 3.22222,-4.019044 1.77222,-1.710596 3.52222,-3.115609 3.88889,-3.122249 0.36667,-0.0066 1.62333,-0.612796 2.7926,-1.347009 1.16925,-0.734209 2.31364,-1.828671 2.54308,-2.432138 0.22944,-0.603466 0.2955,-1.414271 0.14679,-1.801786 -0.1487,-0.387516 -0.73538,-0.881374 -1.30374,-1.097458 -0.74483,-0.283188 -1.68964,-0.127064 -3.38382,0.55916 -1.29276,0.523622 -3.65047,2.050227 -5.23935,3.392453 -1.58889,1.342227 -4.2537,3.755925 -5.9218,5.363778 -1.6681,1.607849 -3.33112,3.488604 -3.69559,4.179453 -0.58994,1.1182 -0.58737,1.371049 0.0235,2.303324 0.3774,0.575983 1.76112,1.760743 3.07493,2.6328 1.31381,0.872063 2.77805,1.585565 3.25386,1.585565 0.47581,0 1.07014,0.205031 1.32073,0.455626 0.2506,0.250596 3.34044,0.66044 6.86632,0.910765 3.52588,0.25032 6.5796,0.624044 6.78605,0.830493 0.20646,0.206454 0.30661,0.729054 0.22258,1.161338 -0.084,0.432289 -1.25279,1.526413 -2.59724,2.431391 -1.34444,0.904978 -3.74444,2.082853 -5.33333,2.617502 -1.58889,0.534653 -4.61798,1.090018 -6.73131,1.234156 -2.64178,0.180173 -4.48218,0.07316 -5.88983,-0.342467 -1.19835,-0.353831 -2.15106,-0.931138 -2.29737,-1.392133 -0.13749,-0.433182 -0.13979,-0.965889 -0.005,-1.183787 0.13466,-0.217902 -0.18964,-0.969693 -0.72068,-1.670644 -0.53105,-0.700956 -1.0151,-1.344574 -1.07567,-1.430262 -0.0606,-0.08569 -0.52819,0.233671 -1.03914,0.709693 -0.88683,0.826204 -0.901,0.985489 -0.31228,3.50912 0.33919,1.453991 0.89402,3.103182 1.23294,3.664857 0.33893,0.56168 1.81623,1.590294 3.2829,2.285809 1.46667,0.695511 3.46667,1.350596 4.44445,1.455742 0.97777,0.105143 2.27777,0.127356 2.88888,0.04936 z"
       style="fill:#000000;stroke-width:1.5;stroke:#000000;stroke-opacity:1;stroke-miterlimit:4;stroke-dasharray:none"
       id="path9469" />
    <path
       d="m 49.555559,79.09735 c -1.344445,0.0755 -3.344445,-0.01 -4.444445,-0.18897 -1.1,-0.17944 -3.121973,-0.83695 -4.493273,-1.46112 -1.426408,-0.64924 -2.980778,-1.77517 -3.632578,-2.63129 -0.62662,-0.82305 -1.45465,-2.85886 -1.84006,-4.52403 -0.38542,-1.66516 -0.70076,-3.481694 -0.70076,-4.036725 0,-0.640431 0.64004,-1.523493 1.75172,-2.416867 0.96344,-0.774244 2.25813,-1.407715 2.87708,-1.407715 0.861388,0 1.493028,0.545946 2.692731,2.3274 0.862049,1.280071 1.567363,2.585022 1.567363,2.899888 0,0.314872 0.55,0.783659 1.222222,1.041759 0.73321,0.28152 2.375084,0.34743 4.103654,0.16475 1.584788,-0.16749 4.184788,-0.70454 5.777778,-1.19346 1.59299,-0.488911 3.178026,-1.117995 3.522303,-1.397969 0.499347,-0.406075 0.229657,-0.569795 -1.333333,-0.809426 -1.077611,-0.165213 -2.959291,-0.316445 -4.181514,-0.336071 -1.222222,-0.01962 -2.795083,-0.334449 -3.495247,-0.699609 -0.700164,-0.36516 -1.610763,-0.663929 -2.023554,-0.663929 -0.412791,0 -1.63993,-0.634218 -2.726975,-1.409373 -1.087045,-0.775156 -2.617204,-2.005436 -3.400354,-2.733947 -0.783149,-0.728515 -1.544494,-1.873582 -1.691864,-2.544586 -0.15195,-0.691787 0.0222,-1.914494 0.40223,-2.824005 0.37302,-0.892769 2.404165,-3.253951 4.580754,-5.325071 2.150812,-2.046595 5.110566,-4.703444 6.577233,-5.904111 1.466666,-1.200666 3.743337,-2.625102 5.059268,-3.165412 1.31593,-0.540311 2.956519,-0.982383 3.645754,-0.982383 0.689234,0 1.777562,0.238937 2.418507,0.530971 0.640945,0.292034 1.450356,1.082102 1.798693,1.755706 0.348333,0.673607 0.633333,1.641092 0.633333,2.149972 0,0.508879 -0.282569,1.601515 -0.627929,2.428075 -0.410647,0.982818 -1.460947,2.03572 -3.035313,3.042831 -1.324063,0.846991 -2.86124,1.684031 -3.415948,1.860089 -0.554709,0.176058 -1.808817,1.120364 -2.786908,2.098453 -1.118783,1.118782 -1.622298,1.934396 -1.357602,2.199093 0.23141,0.231409 2.90141,0.584489 5.933333,0.784623 3.099876,0.204617 6.209385,0.658271 7.104633,1.036506 0.875623,0.369947 2.026045,1.224374 2.556489,1.898725 0.530445,0.674351 1.264027,2.234889 1.630178,3.467857 0.366156,1.232974 0.665733,2.763143 0.665733,3.400383 0,0.637239 -0.382582,2.244991 -0.850177,3.572778 -0.4676,1.3278 -1.3176,2.80031 -1.888889,3.27224 -0.571294,0.47195 -3.238711,1.91926 -5.9276,3.21626 -2.688889,1.297 -6.088889,2.58594 -7.555555,2.8643 -1.466667,0.27837 -3.766667,0.5679 -5.111111,0.64341 z"
       style="fill:#ffffff;stroke-width:0.444444"
       id="path11130" />
    <path
       d="m 49.555559,77.09735 c 0.611111,-0.0845 2.185359,-0.35542 3.498328,-0.60211 1.31297,-0.2467 3.71297,-0.95565 5.333334,-1.57544 1.620363,-0.6198 4.229209,-1.87802 5.797435,-2.79604 2.594867,-1.51902 2.922493,-1.87982 3.64268,-4.01154 0.701591,-2.07667 0.722658,-2.57068 0.185707,-4.35483 -0.333112,-1.10685 -0.921512,-2.4945 -1.307552,-3.08367 -0.386044,-0.58918 -1.452702,-1.27595 -2.370359,-1.52616 -0.917654,-0.25021 -4.003755,-0.64965 -6.858001,-0.88765 -2.854246,-0.23799 -5.907057,-0.73251 -6.784025,-1.09894 -0.876969,-0.36642 -1.713508,-0.97638 -1.858978,-1.35547 -0.178977,-0.4664 0.840722,-1.76614 3.15393,-4.02006 1.880131,-1.83196 3.755536,-3.330822 4.167567,-3.330822 0.412031,0 1.545574,-0.526049 2.518984,-1.169 0.973411,-0.642951 2.019838,-1.481178 2.325394,-1.862725 0.305555,-0.381546 0.555555,-1.260448 0.555555,-1.953111 0,-0.936151 -0.286675,-1.368382 -1.116941,-1.684048 -0.838547,-0.318814 -1.680005,-0.202721 -3.375987,0.465773 -1.242476,0.489738 -3.389851,1.806458 -4.771947,2.926049 -1.382096,1.119586 -4.254447,3.696435 -6.383002,5.726324 -2.155909,2.05598 -4.000183,4.209 -4.163787,4.86086 -0.207453,0.82655 -0.04984,1.44107 0.536767,2.09285 0.456749,0.50749 1.655347,1.49177 2.663551,2.18728 1.008203,0.69551 2.708203,1.57493 3.777777,1.95427 1.069575,0.37934 4.64089,0.89035 7.936256,1.13559 4.050024,0.3014 6.194024,0.64835 6.61633,1.07065 0.343614,0.34362 0.502534,0.94326 0.353148,1.33256 -0.149387,0.38929 -0.726734,0.9099 -1.282998,1.15692 -0.556264,0.24701 -1.689425,0.94297 -2.518136,1.54658 -0.828711,0.6036 -2.828711,1.51224 -4.444444,2.0192 -1.615734,0.50697 -4.737697,1.02424 -6.937697,1.14949 -2.839576,0.16167 -4.515745,0.044 -5.777778,-0.40575 -1.428752,-0.50912 -1.806736,-0.8792 -1.925278,-1.88502 -0.08113,-0.68834 -0.470593,-1.76951 -0.865484,-2.40258 -0.394895,-0.63308 -0.764835,-1.22071 -0.822105,-1.30584 -0.0573,-0.0851 -0.57361,0.19935 -1.14743,0.63218 l -1.04331,0.78697 0.78966,3.10946 c 0.43431,1.7102 1.14012,3.50164 1.56847,3.98096 0.42835,0.47934 1.67881,1.27873 2.77881,1.77644 1.1,0.49771 3,1.05096 4.222222,1.22945 1.222223,0.1785 2.722223,0.25543 3.333334,0.17095 z"
       style="fill:#000000;stroke-width:1.5;stroke:#000000;stroke-opacity:1;stroke-miterlimit:4;stroke-dasharray:none"
       id="path6438" />
    <path
       d="m 141.29809,80.65229 c -0.81862,-0.01551 -1.91077,-0.198831 -2.427,-0.407413 -0.51624,-0.208583 -1.33963,-0.889049 -1.82976,-1.512147 -0.53686,-0.682507 -1.00954,-2.1794 -1.18895,-3.765191 -0.1638,-1.447751 -0.10581,-3.904609 0.12886,-5.45968 0.23467,-1.555067 0.55026,-6.327395 0.70132,-10.605173 0.15106,-4.277778 0.10987,-8.019342 -0.0915,-8.314587 -0.28268,-0.414395 -0.80595,-0.385288 -2.29477,0.127649 -1.48466,0.511507 -2.2594,0.555271 -3.36578,0.190134 -0.99539,-0.328511 -1.80733,-0.333591 -2.64126,-0.01653 -0.66223,0.251778 -1.39104,0.457783 -1.61957,0.457783 -0.22853,0 -0.81551,-0.4 -1.3044,-0.888889 -0.75434,-0.754343 -0.88889,-1.48148 -0.88889,-4.803942 0,-2.679627 0.19906,-4.187294 0.63081,-4.777778 0.56194,-0.768523 1.21716,-0.865853 6.00073,-0.89138 5.13024,-0.02738 5.42443,-0.0795 6.5914,-1.167917 0.67183,-0.626594 1.65836,-1.363699 2.19228,-1.638011 0.53393,-0.274312 1.55696,-0.49875 2.2734,-0.49875 0.71644,0 1.8613,0.439466 2.54415,0.97659 1.21458,0.955391 1.53183,0.977098 14.61549,1 10.99571,0.01925 13.61106,0.142523 14.70729,0.693234 1.07174,0.538409 1.36045,0.997102 1.47155,2.337973 0.0865,1.044608 -0.10924,1.915612 -0.52381,2.330176 -0.36411,0.364116 -1.31056,0.662027 -2.10322,0.662027 -0.79266,0 -1.75694,0.279142 -2.14286,0.62032 -0.38591,0.341173 -1.65865,0.941173 -2.8283,1.333333 -1.42728,0.478534 -3.70006,0.713014 -6.91111,0.713014 -2.63146,0 -4.97447,0.184693 -5.20669,0.410435 -0.23222,0.225738 -1.67285,0.519036 -3.2014,0.651774 -1.52854,0.132742 -3.17854,0.45508 -3.66666,0.716315 -0.8314,0.444947 -0.88714,0.930511 -0.8818,7.681555 0.004,5.213391 -0.20158,8.09284 -0.74371,10.410911 -0.64215,2.745707 -0.66588,3.45744 -0.16576,4.972813 0.3264,0.988987 0.47491,2.57928 0.33694,3.607952 -0.1357,1.011702 -0.58186,2.209777 -0.99146,2.662386 -0.40961,0.452609 -1.40679,1.137085 -2.21595,1.521058 -0.80916,0.383973 -2.14098,0.685458 -2.95959,0.66996 z"
       style="fill:#ffffff;stroke-width:0.444444"
       id="path11348" />
    <path
       d="m 141.59809,78.25229 c 0.48889,-0.1299 1.33572,-0.5179 1.88183,-0.8622 0.54612,-0.34431 1.12168,-1.13889 1.279,-1.76574 0.1594,-0.63508 0.0369,-1.60533 -0.27669,-2.19125 -0.3884,-0.72573 -0.47366,-1.98884 -0.27517,-4.07687 0.15818,-1.66394 0.46899,-4.22535 0.6907,-5.69202 0.22171,-1.46666 0.41998,-5.68949 0.44061,-9.38406 l 0.0375,-6.717395 1.90375,-0.727049 c 1.04706,-0.399875 2.93526,-0.727049 4.19599,-0.727049 1.26074,0 2.39699,-0.169489 2.52502,-0.37664 0.12803,-0.207151 2.78983,-0.493173 5.91512,-0.6356 3.65332,-0.166493 6.27747,-0.510235 7.34901,-0.962657 0.91667,-0.387036 1.66667,-0.89056 1.66667,-1.118951 0,-0.22839 1.05,-0.479654 2.33333,-0.558365 l 2.33333,-0.143111 -1.33333,-0.599484 c -0.98635,-0.443473 -3.58875,-0.585927 -10,-0.547391 -4.76667,0.02865 -9.31667,0.06348 -10.11111,0.07739 -0.79445,0.01392 -1.69445,-0.0041 -2,-0.04011 -0.30556,-0.03597 -1.49423,0.07855 -2.64149,0.254491 -1.89128,0.290043 -2.26237,0.19015 -3.97645,-1.070397 -1.03978,-0.76466 -2.03895,-1.390293 -2.22036,-1.390293 -0.18143,0 -1.21747,0.768223 -2.30233,1.707162 -1.91982,1.661585 -2.08787,1.714741 -6.2951,1.991104 -2.51904,0.165469 -4.65667,0.105161 -5.12325,-0.144542 -0.7111,-0.38057 -0.8178,-0.193205 -0.95416,1.675561 -0.0844,1.157226 -0.0921,2.634773 -0.017,3.283435 0.13056,1.128094 0.20596,1.160209 1.73349,0.738436 1.16288,-0.321085 1.87982,-0.289578 2.63748,0.115906 0.80398,0.430276 1.29868,0.439218 2.17631,0.03933 0.62471,-0.284636 1.78819,-0.517516 2.58552,-0.517516 0.79733,0 1.76475,0.25 2.1498,0.555556 0.38506,0.305555 0.80607,1.155555 0.93559,1.888889 0.12951,0.73333 0.0177,5.53333 -0.24854,10.66667 -0.26621,5.13333 -0.50573,10.63333 -0.53227,12.22222 -0.0265,1.58889 0.12154,3.25017 0.32909,3.69174 0.20755,0.44156 0.81429,0.97702 1.34831,1.1899 0.53402,0.21289 1.37094,0.28078 1.85983,0.15088 z"
       style="fill:#000000;stroke-width:1.5;stroke:#000000;stroke-opacity:1;stroke-miterlimit:4;stroke-dasharray:none"
       id="path7702" />
    <path
       d="m 265.88822,65.965797 c 0.0119,-0.05344 0.19024,-2.097164 0.39639,-4.541609 0.2226,-2.639475 0.19325,-7.223693 -0.0722,-11.287897 -0.32336,-4.94984 -0.30916,-7.286458 0.0513,-8.444444 0.27411,-0.880546 1.08152,-2.299703 1.79424,-3.153684 l 1.29586,-1.552693 1.91116,1.343216 c 1.52785,1.073813 2.06879,1.830932 2.69707,3.774916 0.68714,2.12612 0.77242,3.995511 0.6786,14.876142 l -0.1073,12.444444 2.88889,-0.02676 c 1.58889,-0.01471 5.30987,-0.279667 8.26885,-0.588756 2.95898,-0.309089 7.15898,-0.459484 9.33333,-0.334213 2.17436,0.125271 4.95338,0.361675 6.1756,0.525338 1.22222,0.163662 2.47222,0.5006 2.77778,0.748742 0.30555,0.248146 0.55555,0.995684 0.55555,1.661204 0,0.665516 -0.40725,1.578587 -0.90501,2.029049 -0.52873,0.478493 -2.05324,0.974916 -3.66666,1.193964 -1.51891,0.206223 -3.82937,0.471103 -5.13435,0.588627 -1.30499,0.117524 -2.70499,0.388324 -3.11111,0.601782 -0.40613,0.213455 -2.53842,0.619255 -4.73842,0.901775 -2.2,0.28252 -5.5,0.82155 -7.33334,1.19786 -2.41351,0.49538 -4.46557,0.60169 -7.43648,0.38524 -3.0962,-0.22557 -4.37776,-0.51495 -5.22222,-1.1792 -0.98386,-0.77393 -1.11909,-1.21801 -1.11909,-3.675263 v -2.794973"
       style="fill:#ffffff;stroke-width:0.444444"
       id="path11566" />
    <path
       d="m 276.06128,75.999432 c 1.34444,-0.120791 3.54445,-0.487177 4.88889,-0.814191 1.34445,-0.327017 3.89311,-0.728342 5.6637,-0.89184 2.24382,-0.207191 3.57285,-0.5754 4.38623,-1.215213 0.84675,-0.666044 1.36591,-0.801107 1.89187,-0.492173 0.44166,0.259422 1.50629,0.274964 2.72487,0.03978 1.1,-0.212303 2.83759,-0.369676 3.86131,-0.34972 1.02372,0.01995 1.98411,-0.162409 2.13419,-0.405254 0.15599,-0.2524 -0.0165,-0.330475 -0.40277,-0.182266 -0.37161,0.1426 -1.58711,-0.08881 -2.70112,-0.514258 -1.70773,-0.652187 -2.77317,-0.720693 -6.79187,-0.436702 -2.62152,0.185253 -5.46641,0.407182 -6.32196,0.493168 -0.85556,0.08599 -3.9619,0.286636 -6.90299,0.445885 -4.60531,0.249355 -5.4298,0.190302 -5.94087,-0.425507 -0.46779,-0.563649 -0.5828,-3.468169 -0.54317,-13.717986 0.0378,-9.779551 -0.0961,-13.419644 -0.54007,-14.683884 -0.3247,-0.92452 -0.80531,-1.895902 -1.06804,-2.158625 -0.3406,-0.340609 -0.69111,-0.15194 -1.22147,0.6575 -0.65935,1.006298 -0.71414,2.226463 -0.48257,10.747218 0.15478,5.695306 0.0786,10.755377 -0.18701,12.417902 -0.24654,1.543227 -0.498,4.416711 -0.55881,6.38552 -0.0753,2.436462 0.0703,3.761733 0.4559,4.149786 0.31156,0.313574 1.61156,0.705214 2.88889,0.870316 1.27733,0.165098 3.42242,0.201351 4.76687,0.08056 z"
       style="fill:#000000;stroke-width:1.5;stroke:#000000;stroke-opacity:1;stroke-miterlimit:4;stroke-dasharray:none"
       id="path8668" />
    <path
       d="m 105.8557,78.99773 c -1.34444,0.0752 -3.34444,-0.01 -4.44444,-0.18952 -1.1,-0.17944 -3.101512,-0.82789 -4.447807,-1.441 -1.459951,-0.66487 -2.943911,-1.76517 -3.677106,-2.72644 -0.67612,-0.88644 -1.43172,-2.56889 -1.67912,-3.73878 -0.247396,-1.1699 -0.563089,-2.92722 -0.701538,-3.90517 -0.235715,-1.66501 -0.137435,-1.86993 1.545307,-3.22222 0.988364,-0.79427 2.282,-1.44413 2.874746,-1.44413 0.755774,0 1.560165,0.61924 2.69273,2.07294 0.888253,1.14011 1.615007,2.44506 1.615007,2.89988 0,0.49077 0.496881,1.01992 1.222221,1.3016 0.72275,0.28068 2.40281,0.35872 4.11111,0.19096 1.58889,-0.15602 4.15124,-0.67187 5.69411,-1.14632 1.54286,-0.47445 3.21063,-1.14661 3.70614,-1.49368 0.82148,-0.57539 0.59371,-0.6581 -2.58299,-0.93796 -1.91616,-0.1688 -4.28392,-0.50132 -5.2617,-0.73893 -0.97778,-0.23761 -2.27778,-0.54775 -2.88889,-0.68922 -0.61111,-0.14147 -2.01111,-0.85768 -3.11111,-1.59158 -1.100001,-0.73391 -2.469005,-1.75437 -3.042228,-2.2677 -0.573226,-0.51333 -1.335911,-1.49793 -1.694857,-2.18799 -0.425636,-0.81827 -0.544974,-1.7448 -0.343112,-2.66388 0.195392,-0.889597 1.475845,-2.617477 3.472637,-4.686063 1.73971,-1.802267 4.86312,-4.713618 6.94089,-6.469667 2.10383,-1.778062 4.83796,-3.625984 6.17038,-4.170383 1.31594,-0.53766 2.97587,-0.977563 3.68874,-0.977563 0.71288,0 1.85804,0.290568 2.5448,0.645707 0.68676,0.355139 1.49971,1.251806 1.80656,1.992593 0.3438,0.830006 0.43858,1.982882 0.24699,3.004162 -0.19073,1.016711 -0.86496,2.179124 -1.74437,3.007404 -0.7884,0.742573 -2.62137,1.928716 -4.07327,2.635867 -1.4519,0.707155 -3.30233,1.984653 -4.11205,2.838884 -0.88346,0.932013 -1.31063,1.714749 -1.06815,1.957229 0.22225,0.22225 2.88475,0.57232 5.91668,0.77794 3.03192,0.20561 6.11259,0.6096 6.84592,0.89775 0.73333,0.28814 1.78129,0.94352 2.32879,1.45638 0.5475,0.51287 1.3975,2.00705 1.88889,3.3204 0.49139,1.31335 0.89343,3.12373 0.89343,4.02305 0,0.89933 -0.33444,2.54182 -0.7432,3.65 -0.40876,1.10817 -0.92787,2.25837 -1.15357,2.55601 -0.22571,0.29763 -1.94127,1.41346 -3.81236,2.47962 -1.87109,1.06616 -4.50688,2.37757 -5.85731,2.91423 -1.35043,0.53667 -3.55043,1.1902 -4.88889,1.4523 -1.33846,0.26209 -3.53356,0.53807 -4.87801,0.61329 z"
       style="fill:#ffffff;stroke-width:0.444444"
       id="path11995" />
    <path
       d="m 105.76749,76.530741 c 0.61111,-0.0848 2.29411,-0.37189 3.73999,-0.63805 1.44589,-0.26616 4.06318,-1.08103 5.81622,-1.81082 1.75303,-0.72979 4.25636,-1.97184 5.56296,-2.76011 2.11568,-1.27639 2.46686,-1.70906 3.2092,-3.9539 l 0.83356,-2.52067 -1.02541,-2.59044 c -0.81783,-2.06603 -1.34032,-2.74045 -2.58097,-3.33146 -0.96334,-0.4589 -3.7244,-0.91577 -7.25245,-1.20006 -3.78512,-0.30499 -6.24606,-0.72749 -7.33333,-1.25898 -0.90004,-0.43996 -1.6414,-1.09994 -1.64746,-1.4666 -0.006,-0.36667 1.46693,-2.11667 3.27332,-3.88889 1.80638,-1.77223 3.57573,-3.222225 3.93188,-3.222225 0.35614,0 1.53772,-0.52168 2.62571,-1.159289 1.088,-0.637609 2.17362,-1.524462 2.41248,-1.970782 0.23886,-0.44632 0.4343,-1.329591 0.4343,-1.962822 0,-0.826898 -0.32122,-1.273458 -1.13993,-1.584731 -0.88252,-0.335531 -1.66034,-0.212485 -3.44445,0.544882 -1.26748,0.538058 -3.90451,2.312533 -5.86007,3.943284 -1.95555,1.630751 -4.90555,4.371053 -6.55555,6.089573 -1.650003,1.71851 -3.000003,3.5066 -3.000003,3.97352 0,0.46692 0.55,1.35846 1.222222,1.9812 0.67222,0.62273 2.018651,1.66015 2.992061,2.30537 0.97341,0.64522 2.18341,1.17313 2.68889,1.17313 0.50548,0 1.12361,0.20456 1.37363,0.45458 0.25002,0.25002 3.17008,0.64864 6.48901,0.88583 3.31894,0.23719 6.35438,0.55402 6.74542,0.70408 0.39105,0.15006 0.71099,0.64682 0.71099,1.10393 0,0.45709 -0.55,1.18108 -1.22222,1.60884 -0.67223,0.42777 -1.32223,0.91051 -1.44445,1.07275 -0.12222,0.16224 -1.02698,0.71347 -2.01057,1.22496 -0.98359,0.51148 -3.36558,1.33335 -5.29331,1.82638 -1.92774,0.49303 -4.82298,0.89341 -6.43388,0.88973 -1.61089,-0.004 -3.728902,-0.28442 -4.706683,-0.62387 -1.093546,-0.37964 -1.827204,-0.93301 -1.906191,-1.43775 -0.07063,-0.45132 -0.222066,-1.22057 -0.336524,-1.70946 -0.114458,-0.48889 -0.493053,-1.2585 -0.841329,-1.71024 -0.610356,-0.79168 -0.671458,-0.79251 -1.691862,-0.0228 -0.987045,0.74453 -1.020467,0.90528 -0.494209,2.37691 0.31044,0.8681 0.573213,2.05949 0.583942,2.64753 0.01071,0.58803 0.529685,1.73804 1.153236,2.55556 0.623551,0.81751 1.373551,1.48762 1.666666,1.48913 0.293116,10e-4 1.132938,0.33513 1.866271,0.74139 0.733331,0.40625 2.333333,0.8842 3.555553,1.06208 1.22223,0.1779 2.72223,0.25409 3.33334,0.16932 z"
       style="fill:#000000;stroke-width:1.5;stroke:#000000;stroke-opacity:1;stroke-miterlimit:4;stroke-dasharray:none"
       id="path7482" />
  </g>
</svg>
